#Comment line ignore any data following # character 
#Hierarchical Translation and Rotation (.htr) file 
[Header]	
#Header keywords are followed by a single value 
FileType HTR		#Single word string
DataType HTRS		#Translation followed by rotation and scale data
FileVersion 1		#integer
NumSegments 84		#integer
NumFrames 2		#integer
DataFrameRate 30		#integer, data frame rate in this file
EulerRotationOrder ZYX
CalibrationUnits mm
RotationUnits Degrees
GlobalAxisofGravity Y
BoneLengthAxis Y
ScaleFactor 1.00
[SegmentNames&Hierarchy]
#CHILD	PARENT
MASTER GLOBAL
root MASTER
chest root
L_mid_tent01 root
R_mid_tent01 root
spine01 root
Bip01_Neck chest
L_humerus chest
R_humerus chest
weapon_bone chest
Bip01_Head Bip01_Neck
eye_left_bone Bip01_Head
eye_right_bone Bip01_Head
L_forearm L_humerus
L_front_hand L_forearm
L_weapon_bone L_forearm
L_front_hand01_01 L_front_hand
L_front_hand02_01 L_front_hand
L_front_hand03_01 L_front_hand
L_front_hand01_02 L_front_hand01_01
L_front_hand02_02 L_front_hand02_01
L_front_hand03_02 L_front_hand03_01
R_forearm R_humerus
R_front_hand R_forearm
R_weapon_bone R_forearm
R_front_hand01_01 R_front_hand
R_front_hand02_01 R_front_hand
R_front_hand03_01 R_front_hand
R_front_hand01_02 R_front_hand01_01
R_front_hand02_02 R_front_hand02_01
R_front_hand03_02 R_front_hand03_01
null_rope01_connect L_mid_tent01
Rope1_Seg01 null_rope01_connect
Rope1_Seg02 Rope1_Seg01
Rope1_Seg03 Rope1_Seg02
Rope1_Seg04 Rope1_Seg03
Rope1_Seg05 Rope1_Seg04
Rope1_Seg06 Rope1_Seg05
Rope1_Seg07 Rope1_Seg06
Rope1_Seg09 Rope1_Seg07
L_mid_hand01 Rope1_Seg09
L_mid_hand02 Rope1_Seg09
L_mid_hand03 Rope1_Seg09
null_rope02_connect R_mid_tent01
Rope2_Seg01 null_rope02_connect
Rope2_Seg02 Rope2_Seg01
Rope2_Seg03 Rope2_Seg02
Rope2_Seg04 Rope2_Seg03
Rope2_Seg05 Rope2_Seg04
Rope2_Seg06 Rope2_Seg05
Rope2_Seg07 Rope2_Seg06
Rope2_Seg09 Rope2_Seg07
R_mid_hand01 Rope2_Seg09
R_mid_hand02 Rope2_Seg09
R_mid_hand03 Rope2_Seg09
spine02 spine01
spine03 spine02
pelvis spine03
null_rope03_connect pelvis
null_rope04_connect pelvis
Rope3_Seg01 null_rope03_connect
Rope3_Seg02 Rope3_Seg01
Rope3_Seg03 Rope3_Seg02
Rope3_Seg04 Rope3_Seg03
Rope3_Seg05 Rope3_Seg04
Rope3_Seg06 Rope3_Seg05
Rope3_Seg07 Rope3_Seg06
Rope3_Seg08 Rope3_Seg07
Rope3_Seg09 Rope3_Seg08
R_rear_hand01 Rope3_Seg09
R_rear_hand02 Rope3_Seg09
R_rear_hand03 Rope3_Seg09
Rope4_Seg01 null_rope04_connect
Rope4_Seg02 Rope4_Seg01
Rope4_Seg03 Rope4_Seg02
Rope4_Seg04 Rope4_Seg03
Rope4_Seg05 Rope4_Seg04
Rope4_Seg06 Rope4_Seg05
Rope4_Seg07 Rope4_Seg06
Rope4_Seg08 Rope4_Seg07
Rope4_Seg09 Rope4_Seg08
L_rear_hand01 Rope4_Seg09
L_rear_hand02 Rope4_Seg09
L_rear_hand03 Rope4_Seg09
[BasePosition]
#SegmentName Tx, Ty, Tz, Rx, Ry, Rz, BoneLength
MASTER 0.000000 0.000000 0.000000 -90.000000 0.000000 0.000000 10.000000 
root 0.000000 0.000000 0.000000 0.000000 0.000000 0.000000 10.000000 
chest 0.000000 0.000000 0.000000 0.000000 0.000000 0.000000 10.000000 
L_mid_tent01 0.000000 0.000000 0.000000 0.000000 0.000000 0.000000 10.000000 
R_mid_tent01 0.000000 0.000000 0.000000 0.000000 0.000000 0.000000 10.000000 
spine01 0.000000 0.000000 0.000000 0.000000 0.000000 0.000000 10.000000 
Bip01_Neck 0.000000 0.000000 0.000000 0.000000 0.000000 0.000000 10.000000 
L_humerus 0.000000 0.000000 0.000000 0.000000 0.000000 0.000000 10.000000 
R_humerus 0.000000 0.000000 0.000000 0.000000 0.000000 0.000000 10.000000 
weapon_bone 0.000000 0.000000 0.000000 0.000000 0.000000 0.000000 10.000000 
Bip01_Head 0.000000 0.000000 0.000000 0.000000 0.000000 0.000000 10.000000 
eye_left_bone 0.000000 0.000000 0.000000 0.000000 0.000000 0.000000 10.000000 
eye_right_bone 0.000000 0.000000 0.000000 0.000000 0.000000 0.000000 10.000000 
L_forearm 0.000000 0.000000 0.000000 0.000000 0.000000 0.000000 10.000000 
L_front_hand 0.000000 0.000000 0.000000 0.000000 0.000000 0.000000 10.000000 
L_weapon_bone 0.000000 0.000000 0.000000 0.000000 0.000000 0.000000 10.000000 
L_front_hand01_01 0.000000 0.000000 0.000000 0.000000 0.000000 0.000000 10.000000 
L_front_hand02_01 0.000000 0.000000 0.000000 0.000000 0.000000 0.000000 10.000000 
L_front_hand03_01 0.000000 0.000000 0.000000 0.000000 0.000000 0.000000 10.000000 
L_front_hand01_02 0.000000 0.000000 0.000000 0.000000 0.000000 0.000000 10.000000 
L_front_hand02_02 0.000000 0.000000 0.000000 0.000000 0.000000 0.000000 10.000000 
L_front_hand03_02 0.000000 0.000000 0.000000 0.000000 0.000000 0.000000 10.000000 
R_forearm 0.000000 0.000000 0.000000 0.000000 0.000000 0.000000 10.000000 
R_front_hand 0.000000 0.000000 0.000000 0.000000 0.000000 0.000000 10.000000 
R_weapon_bone 0.000000 0.000000 0.000000 0.000000 0.000000 0.000000 10.000000 
R_front_hand01_01 0.000000 0.000000 0.000000 0.000000 0.000000 0.000000 10.000000 
R_front_hand02_01 0.000000 0.000000 0.000000 0.000000 0.000000 0.000000 10.000000 
R_front_hand03_01 0.000000 0.000000 0.000000 0.000000 0.000000 0.000000 10.000000 
R_front_hand01_02 0.000000 0.000000 0.000000 0.000000 0.000000 0.000000 10.000000 
R_front_hand02_02 0.000000 0.000000 0.000000 0.000000 0.000000 0.000000 10.000000 
R_front_hand03_02 0.000000 0.000000 0.000000 0.000000 0.000000 0.000000 10.000000 
null_rope01_connect 0.000000 0.000000 0.000000 0.000000 0.000000 0.000000 10.000000 
Rope1_Seg01 0.000000 0.000000 0.000000 0.000000 0.000000 0.000000 10.000000 
Rope1_Seg02 0.000000 0.000000 0.000000 0.000000 0.000000 0.000000 10.000000 
Rope1_Seg03 0.000000 0.000000 0.000000 0.000000 0.000000 0.000000 10.000000 
Rope1_Seg04 0.000000 0.000000 0.000000 0.000000 0.000000 0.000000 10.000000 
Rope1_Seg05 0.000000 0.000000 0.000000 0.000000 0.000000 0.000000 10.000000 
Rope1_Seg06 0.000000 0.000000 0.000000 0.000000 0.000000 0.000000 10.000000 
Rope1_Seg07 0.000000 0.000000 0.000000 0.000000 0.000000 0.000000 10.000000 
Rope1_Seg09 0.000000 0.000000 0.000000 0.000000 0.000000 0.000000 10.000000 
L_mid_hand01 0.000000 0.000000 0.000000 0.000000 0.000000 0.000000 10.000000 
L_mid_hand02 0.000000 0.000000 0.000000 0.000000 0.000000 0.000000 10.000000 
L_mid_hand03 0.000000 0.000000 0.000000 0.000000 0.000000 0.000000 10.000000 
null_rope02_connect 0.000000 0.000000 0.000000 0.000000 0.000000 0.000000 10.000000 
Rope2_Seg01 0.000000 0.000000 0.000000 0.000000 0.000000 0.000000 10.000000 
Rope2_Seg02 0.000000 0.000000 0.000000 0.000000 0.000000 0.000000 10.000000 
Rope2_Seg03 0.000000 0.000000 0.000000 0.000000 0.000000 0.000000 10.000000 
Rope2_Seg04 0.000000 0.000000 0.000000 0.000000 0.000000 0.000000 10.000000 
Rope2_Seg05 0.000000 0.000000 0.000000 0.000000 0.000000 0.000000 10.000000 
Rope2_Seg06 0.000000 0.000000 0.000000 0.000000 0.000000 0.000000 10.000000 
Rope2_Seg07 0.000000 0.000000 0.000000 0.000000 0.000000 0.000000 10.000000 
Rope2_Seg09 0.000000 0.000000 0.000000 0.000000 0.000000 0.000000 10.000000 
R_mid_hand01 0.000000 0.000000 0.000000 0.000000 0.000000 0.000000 10.000000 
R_mid_hand02 0.000000 0.000000 0.000000 0.000000 0.000000 0.000000 10.000000 
R_mid_hand03 0.000000 0.000000 0.000000 0.000000 0.000000 0.000000 10.000000 
spine02 0.000000 0.000000 0.000000 0.000000 0.000000 0.000000 10.000000 
spine03 0.000000 0.000000 0.000000 0.000000 0.000000 0.000000 10.000000 
pelvis 0.000000 0.000000 0.000000 0.000000 0.000000 0.000000 10.000000 
null_rope03_connect 0.000000 0.000000 0.000000 0.000000 0.000000 0.000000 10.000000 
null_rope04_connect 0.000000 0.000000 0.000000 0.000000 0.000000 0.000000 10.000000 
Rope3_Seg01 0.000000 0.000000 0.000000 0.000000 0.000000 0.000000 10.000000 
Rope3_Seg02 0.000000 0.000000 0.000000 0.000000 0.000000 0.000000 10.000000 
Rope3_Seg03 0.000000 0.000000 0.000000 0.000000 0.000000 0.000000 10.000000 
Rope3_Seg04 0.000000 0.000000 0.000000 0.000000 0.000000 0.000000 10.000000 
Rope3_Seg05 0.000000 0.000000 0.000000 0.000000 0.000000 0.000000 10.000000 
Rope3_Seg06 0.000000 0.000000 0.000000 0.000000 0.000000 0.000000 10.000000 
Rope3_Seg07 0.000000 0.000000 0.000000 0.000000 0.000000 0.000000 10.000000 
Rope3_Seg08 0.000000 0.000000 0.000000 0.000000 0.000000 0.000000 10.000000 
Rope3_Seg09 0.000000 0.000000 0.000000 0.000000 0.000000 0.000000 10.000000 
R_rear_hand01 0.000000 0.000000 0.000000 0.000000 0.000000 0.000000 10.000000 
R_rear_hand02 0.000000 0.000000 0.000000 0.000000 0.000000 0.000000 10.000000 
R_rear_hand03 0.000000 0.000000 0.000000 0.000000 0.000000 0.000000 10.000000 
Rope4_Seg01 0.000000 0.000000 0.000000 0.000000 0.000000 0.000000 10.000000 
Rope4_Seg02 0.000000 0.000000 0.000000 0.000000 0.000000 0.000000 10.000000 
Rope4_Seg03 0.000000 0.000000 0.000000 0.000000 0.000000 0.000000 10.000000 
Rope4_Seg04 0.000000 0.000000 0.000000 0.000000 0.000000 0.000000 10.000000 
Rope4_Seg05 0.000000 0.000000 0.000000 0.000000 0.000000 0.000000 10.000000 
Rope4_Seg06 0.000000 0.000000 0.000000 0.000000 0.000000 0.000000 10.000000 
Rope4_Seg07 0.000000 0.000000 0.000000 0.000000 0.000000 0.000000 10.000000 
Rope4_Seg08 0.000000 0.000000 0.000000 0.000000 0.000000 0.000000 10.000000 
Rope4_Seg09 0.000000 0.000000 0.000000 0.000000 0.000000 0.000000 10.000000 
L_rear_hand01 0.000000 0.000000 0.000000 0.000000 0.000000 0.000000 10.000000 
L_rear_hand02 0.000000 0.000000 0.000000 0.000000 0.000000 0.000000 10.000000 
L_rear_hand03 0.000000 0.000000 0.000000 0.000000 0.000000 0.000000 10.000000 
#Beginning of Data. Separated by tabs
#Fr	Tx	Ty	Tz	Rx	Ry	Rz	SF
[MASTER]
2 0.000048 -423.853607 -45.777336 0.001660 0.001660 0.001660 426.318481
3 0.000095 -861.019348 -97.439934 0.001660 0.001660 0.001660 866.515381
[root]
2 -17.235506 4.086481 1450.182251 -90.803520 -11.634051 -90.590614 1450.290283
3 -19.200474 -3.026505 1455.172852 -88.494461 -11.860376 -93.388451 1455.302734
[chest]
2 -84.512650 -34.090519 0.000000 1.130481 0.253478 164.846832 91.129311
3 -84.512650 -34.090519 0.000000 5.874365 1.242182 160.925995 91.129311
[L_mid_tent01]
2 27.299120 22.179106 -249.918732 -14.250437 14.143882 30.382738 252.381714
3 27.299124 22.179106 -249.918732 -7.450209 14.282864 48.000816 252.381714
[R_mid_tent01]
2 23.228794 24.509907 226.238495 -174.844757 -17.363459 39.443012 228.744751
3 23.228794 24.509907 226.238495 175.538452 -14.184717 55.332851 228.744751
[spine01]
2 -0.361383 -0.195265 0.000000 0.001983 0.001257 25.265673 0.410763
3 -0.361383 -0.195265 0.000000 0.002021 0.001194 28.821390 0.410763
[Bip01_Neck]
2 165.484543 71.581718 0.000119 176.643677 -1.657966 43.431908 180.302734
3 165.484543 71.581718 0.000119 176.643677 -1.657967 43.431911 180.302734
[L_humerus]
2 -13.983130 -135.272980 -120.471481 -12.004836 73.486855 81.219421 181.680161
3 -13.983130 -135.272980 -120.471481 -28.388906 80.165970 69.119484 181.680161
[R_humerus]
2 -13.983309 -135.273102 125.287651 36.717094 -74.266464 59.114017 184.909012
3 -13.983309 -135.273102 125.287651 61.637814 -79.632874 34.480026 184.909012
[weapon_bone]
2 235.964890 -300.705902 0.000000 0.000000 -89.951546 -128.212341 382.234833
3 235.964890 -300.705902 0.000000 0.000000 -89.951546 -128.212341 382.234833
[Bip01_Head]
2 213.440399 185.725983 11.640214 4.965422 4.680889 -43.863182 283.172119
3 213.436600 185.736649 11.503491 4.970813 8.175846 -43.795578 283.170654
[eye_left_bone]
2 -24.626970 125.451866 -64.772606 0.000000 -90.000000 -99.840431 143.318359
3 -24.626970 125.451866 -64.772606 0.000000 -90.000000 -99.840431 143.318359
[eye_right_bone]
2 -24.626970 125.451866 64.327362 0.000000 -89.972023 80.156380 143.117676
3 -24.626970 125.451866 64.327362 0.000000 -89.972023 80.156380 143.117676
[L_forearm]
2 322.776093 0.000000 -0.000119 0.000392 -0.002314 -109.232025 322.776093
3 322.776093 0.000000 -0.000119 0.000381 -0.002316 -108.697319 322.776093
[L_front_hand]
2 241.149185 -0.042021 -3.300071 -117.036057 -1.836306 -27.422857 241.171753
3 241.149185 -0.042021 -3.300071 -47.881874 -1.838809 -27.424097 241.171753
[L_weapon_bone]
2 156.183838 0.000000 0.000000 0.000014 0.000007 0.000001 156.183838
3 156.183838 0.000000 0.000000 0.000014 0.000007 0.000001 156.183838
[L_front_hand01_01]
2 86.095154 20.947098 -0.655860 -0.366594 -0.477154 75.385574 88.609184
3 86.095154 20.947098 -0.655860 -0.366594 -0.477154 75.385574 88.609184
[L_front_hand02_01]
2 86.935165 -11.437475 24.513514 154.399796 -59.883835 -61.369587 91.046425
3 86.935165 -11.437475 24.513514 154.399811 -59.883835 -61.369587 91.046425
[L_front_hand03_01]
2 86.637497 -14.123976 -20.424902 -153.913879 58.118130 -62.702892 90.126129
3 86.637497 -14.123976 -20.424902 -153.913849 58.118107 -62.702850 90.126129
[L_front_hand01_02]
2 71.020905 -0.000179 0.000030 0.000279 -0.002331 -103.636848 71.020905
3 71.020905 -0.000179 0.000030 0.000127 -0.002344 -96.186813 71.020905
[L_front_hand02_02]
2 71.020927 -0.000119 0.000060 0.000279 -0.002331 -103.636848 71.020927
3 71.020927 -0.000119 0.000060 0.000127 -0.002344 -96.186813 71.020927
[L_front_hand03_02]
2 71.020905 -0.000060 0.000060 0.000279 -0.002331 -103.636848 71.020905
3 71.020905 -0.000060 0.000060 0.000127 -0.002344 -96.186813 71.020905
[R_forearm]
2 322.776428 -0.000060 0.000030 0.206231 0.061835 -107.830429 322.776428
3 322.776428 -0.000060 0.000030 0.206578 0.060664 -107.180397 322.776428
[R_front_hand]
2 238.847015 -0.006795 2.210259 -66.391014 -10.645266 -26.311136 238.857239
3 238.847015 -0.006795 2.210259 -137.848816 -10.645096 -26.315710 238.857239
[R_weapon_bone]
2 155.664093 0.002503 -0.000030 0.003487 0.001180 -90.988930 155.664078
3 155.664093 0.002503 -0.000030 0.003487 0.001180 -90.988930 155.664078
[R_front_hand01_01]
2 87.624611 14.231146 22.918642 -154.633499 -59.950619 61.746044 91.683487
3 87.624611 14.231146 22.918642 -154.633484 -59.950607 61.746033 91.683487
[R_front_hand02_01]
2 89.356956 14.367283 -19.491137 154.602661 58.302849 63.744389 92.579636
3 89.356956 14.367283 -19.491137 154.602661 58.302856 63.744389 92.579636
[R_front_hand03_01]
2 87.286232 -22.307278 -0.143439 0.162155 -0.423168 -75.767921 90.091743
3 87.286232 -22.307278 -0.143439 0.162155 -0.423168 -75.767921 90.091743
[R_front_hand01_02]
2 71.020905 0.000060 0.000119 0.002331 -0.000279 103.632622 71.020905
3 71.020905 0.000060 0.000119 0.002344 -0.000127 96.189003 71.020905
[R_front_hand02_02]
2 71.020844 -0.000030 -0.000119 0.002331 -0.000279 103.632622 71.020836
3 71.020844 -0.000030 -0.000119 0.002344 -0.000127 96.189003 71.020836
[R_front_hand03_02]
2 71.020905 0.000000 0.000030 0.002331 -0.000279 103.632622 71.020905
3 71.020905 0.000000 0.000030 0.002344 -0.000127 96.189003 71.020905
[null_rope01_connect]
2 328.732483 0.000000 -0.000238 -153.941956 -68.993538 -136.648926 328.732483
3 328.732483 0.000000 -0.000238 -142.348770 -73.553123 -165.164108 328.732483
[Rope1_Seg01]
2 -0.000001 -0.000037 0.000153 61.286469 -5.305552 -127.317253 0.000157
3 -0.000003 -0.000035 0.000153 113.304970 8.488494 -169.680756 0.000157
[Rope1_Seg02]
2 139.999863 -0.000179 0.000000 -6.777233 5.698279 -1.402522 139.999863
3 139.999863 -0.000179 0.000000 -12.549956 14.824941 2.386896 139.999863
[Rope1_Seg03]
2 139.999924 0.000060 -0.000060 -4.431619 4.406557 -2.358301 139.999924
3 139.999924 0.000060 -0.000060 -6.099635 8.262089 -2.515020 139.999924
[Rope1_Seg04]
2 139.999924 -0.000060 -0.000119 -14.386974 4.486277 3.556682 139.999924
3 139.999924 -0.000060 -0.000119 -3.498462 7.321835 -5.757636 139.999924
[Rope1_Seg05]
2 139.999832 0.000119 -0.000060 -8.382908 1.272965 4.209043 139.999832
3 139.999832 0.000119 -0.000060 -3.417075 3.761265 -2.061180 139.999832
[Rope1_Seg06]
2 139.999954 0.000119 -0.000060 -3.594929 0.609602 1.867869 139.999954
3 139.999954 0.000119 -0.000060 -2.858461 2.466234 -1.168336 139.999954
[Rope1_Seg07]
2 139.999985 0.000060 0.000000 -2.176219 0.317118 1.242200 139.999985
3 139.999985 0.000060 0.000000 -1.103829 0.839130 -0.347699 139.999985
[Rope1_Seg09]
2 121.602913 0.000119 -0.000089 -89.793175 -1.359789 0.847147 121.602913
3 121.602913 0.000119 -0.000089 -89.793175 -1.359789 0.847147 121.602913
[L_mid_hand01]
2 103.859421 1.038730 8.195221 128.584747 -66.574249 -36.738117 104.187431
3 103.859421 1.038730 8.195221 124.165955 -63.799015 -31.873352 104.187431
[L_mid_hand02]
2 105.572853 -4.139662 -10.864139 -167.717957 43.141708 -71.740593 106.211075
3 105.572853 -4.139662 -10.864139 -164.626358 42.318848 -67.191460 106.211075
[L_mid_hand03]
2 104.641464 17.579376 -3.913581 -6.429527 17.666080 73.526825 106.179977
3 104.641464 17.579376 -3.913581 -7.501869 17.251593 69.949562 106.179977
[null_rope02_connect]
2 328.732849 0.000179 -0.000119 -134.536346 73.003479 -15.935847 328.732849
3 328.732849 0.000179 -0.000119 -127.370705 77.001717 5.155409 328.732849
[Rope2_Seg01]
2 0.000095 0.000132 0.000000 29.205250 -1.732504 -44.419895 0.000163
3 0.000095 0.000150 0.000000 -38.001881 -1.848967 1.203471 0.000178
[Rope2_Seg02]
2 139.999741 -0.000060 -0.000119 -1.764053 2.045506 -0.262339 139.999756
3 139.999741 -0.000060 -0.000119 -6.671271 9.844178 2.295850 139.999756
[Rope2_Seg03]
2 140.000107 0.000030 0.000000 -10.906961 2.373856 2.826470 140.000107
3 140.000107 0.000030 0.000000 -2.117489 3.366224 0.290792 140.000107
[Rope2_Seg04]
2 139.999802 0.000000 -0.000060 55.398266 -4.582779 -20.561388 139.999802
3 139.999802 0.000000 -0.000060 -23.006485 23.560747 -3.787535 139.999802
[Rope2_Seg05]
2 139.999985 -0.000060 0.000119 21.156399 -19.803724 -8.419776 139.999985
3 139.999985 -0.000060 0.000119 -116.740570 57.514755 22.815023 139.999985
[Rope2_Seg06]
2 139.999893 -0.000030 -0.000119 3.956726 -9.861199 -0.493763 139.999893
3 139.999893 -0.000030 -0.000119 -4.289337 -16.345354 12.574329 139.999893
[Rope2_Seg07]
2 139.999893 0.000060 -0.000060 1.600496 -5.992423 0.111051 139.999893
3 139.999893 0.000060 -0.000060 -0.009934 0.535767 -0.364373 139.999893
[Rope2_Seg09]
2 121.338966 0.000089 -0.000060 33.793236 -1.359788 -0.847141 121.338966
3 121.338966 0.000089 -0.000060 33.793236 -1.359788 -0.847141 121.338966
[R_mid_hand01]
2 104.680779 11.144459 -10.335981 -16.756907 45.078602 69.693840 105.778534
3 104.680779 11.144459 -10.335981 -18.237753 44.607113 67.592667 105.778534
[R_mid_hand02]
2 104.070427 2.443552 8.231699 49.966972 -67.318741 38.315926 104.424065
3 104.070427 2.443552 8.231699 52.237907 -66.108360 35.844143 104.424065
[R_mid_hand03]
2 106.028137 -11.221827 -5.996406 -176.940826 15.523118 -75.998016 106.788818
3 106.028137 -11.221827 -5.996406 -176.510086 15.433296 -74.380737 106.788818
[spine02]
2 129.756927 0.001550 0.000119 0.399294 -4.040691 -13.469398 129.756927
3 129.756927 0.001550 0.000119 0.430767 -4.037204 -13.944005 129.756927
[spine03]
2 78.614037 0.081493 -4.899008 1.917105 3.819220 16.818624 78.766571
3 78.614006 0.081504 -4.899010 1.936743 3.812797 17.114386 78.766541
[pelvis]
2 169.435242 0.051022 0.000000 -0.061562 -0.179854 14.785862 169.435257
3 169.435242 0.051022 0.000000 -0.062500 -0.179530 15.384525 169.435257
[null_rope03_connect]
2 -1.257226 -2.466202 137.391083 -62.568241 -89.163040 120.811638 137.418976
3 -1.257226 -2.466202 137.391083 -49.410419 -85.877113 103.981560 137.418976
[null_rope04_connect]
2 -1.259640 -2.480268 -137.844437 -62.568241 -89.163040 120.811638 137.872513
3 -1.259640 -2.480268 -137.844437 -49.410419 -85.877113 103.981560 137.872513
[Rope3_Seg01]
2 -0.000019 -0.000015 -0.000147 -131.787140 11.366318 -82.702988 0.000149
3 -0.000019 0.000008 -0.000142 -133.918869 -9.870610 -39.469952 0.000143
[Rope3_Seg02]
2 139.999924 -0.000119 0.000060 1.096459 -9.921852 -11.880171 139.999924
3 139.999924 -0.000119 0.000060 -1.137477 -10.177769 -19.491886 139.999924
[Rope3_Seg03]
2 139.999924 -0.000119 0.000119 1.562543 -10.694067 -17.664457 139.999924
3 139.999924 -0.000119 0.000119 -1.271533 -2.065977 -4.334586 139.999924
[Rope3_Seg04]
2 139.999924 0.000119 0.000000 2.004278 -0.451796 7.493032 139.999924
3 139.999924 0.000119 0.000000 3.130072 2.605876 7.198807 139.999924
[Rope3_Seg05]
2 139.999924 -0.000238 0.000060 2.874333 6.856233 24.395973 139.999924
3 139.999924 -0.000238 0.000060 8.731194 13.378971 34.073940 139.999924
[Rope3_Seg06]
2 139.999893 -0.000119 -0.000060 0.187870 2.960296 11.210350 139.999893
3 139.999893 -0.000119 -0.000060 6.012668 16.762140 35.355164 139.999893
[Rope3_Seg07]
2 139.999771 0.000060 -0.000119 -0.140050 1.898794 7.290250 139.999771
3 139.999771 0.000060 -0.000119 0.506119 0.001652 0.001667 139.999771
[Rope3_Seg08]
2 139.999985 -0.000060 0.000000 0.103157 0.810222 3.158211 139.999985
3 139.999985 -0.000060 0.000000 0.535796 0.001652 0.001667 139.999985
[Rope3_Seg09]
2 90.185997 -0.000179 -0.000060 89.793228 -1.359877 -0.847183 90.185997
3 90.185997 -0.000179 -0.000060 89.793228 -1.359877 -0.847183 90.185997
[R_rear_hand01]
2 103.366196 -6.073594 -10.757982 -177.375809 24.533825 -73.108765 104.101845
3 103.366196 -6.073594 -10.757982 -176.465668 24.425859 -70.909309 104.101845
[R_rear_hand02]
2 100.509819 12.039542 -7.992327 -13.406411 36.702328 71.277184 101.543350
3 100.509819 12.039542 -7.992327 -14.843726 36.213379 68.859123 101.543350
[R_rear_hand03]
2 101.539970 5.215704 5.435467 72.167244 -71.123337 20.795889 101.819031
3 101.539970 5.215704 5.435467 73.787918 -69.202950 19.069901 101.819031
[Rope4_Seg01]
2 0.000010 0.000038 -0.000114 49.077610 25.970381 -105.272163 0.000121
3 0.000010 0.000038 -0.000114 48.623867 1.597850 -107.878021 0.000121
[Rope4_Seg02]
2 139.999985 0.000060 0.000119 -0.233108 -6.304062 2.194009 139.999985
3 139.999985 0.000060 0.000119 13.626633 -46.474701 -20.255087 139.999985
[Rope4_Seg03]
2 139.999924 0.000000 -0.000238 0.359984 -12.696609 5.417610 139.999924
3 139.999924 0.000000 -0.000238 6.116684 -12.672458 -3.090166 139.999924
[Rope4_Seg04]
2 139.999985 0.000000 0.000119 1.845075 -11.942374 3.733368 139.999985
3 139.999985 0.000000 0.000119 0.894776 2.403605 1.539180 139.999985
[Rope4_Seg05]
2 139.999802 -0.000060 -0.000119 -6.380335 15.395598 -13.608416 139.999802
3 139.999802 -0.000060 -0.000119 0.343575 8.568884 3.966077 139.999802
[Rope4_Seg06]
2 139.999924 0.000000 0.000060 -1.013163 5.739777 -4.621102 139.999924
3 139.999924 0.000000 0.000060 1.399367 8.311481 4.820778 139.999924
[Rope4_Seg07]
2 139.999802 0.000000 0.000000 -0.279529 3.334842 -2.688417 139.999802
3 139.999802 0.000000 0.000000 0.577715 4.571026 2.524512 139.999802
[Rope4_Seg08]
2 139.999924 0.000000 0.000119 -1.576867 1.484074 -1.191120 139.999924
3 139.999924 0.000000 0.000119 -1.447465 0.001681 0.001639 139.999924
[Rope4_Seg09]
2 90.185791 0.000060 0.000060 -135.617828 2.228885 0.850567 90.185791
3 90.185791 0.000060 0.000060 -135.617828 2.228885 0.850567 90.185791
[L_rear_hand01]
2 101.696655 -8.392275 -7.654577 -14.676043 -36.272404 110.857796 102.329041
3 101.696655 -8.392275 -7.654577 -18.919888 -34.466518 118.185951 102.329041
[L_rear_hand02]
2 102.726799 -1.568258 5.773216 73.610298 69.437729 160.740753 102.900848
3 102.726799 -1.568258 5.773216 77.226944 63.386848 164.679077 102.900848
[L_rear_hand03]
2 104.552910 9.721220 -10.420293 -176.571304 -24.441328 -108.830589 105.519653
3 104.552910 9.721220 -10.420293 -173.780411 -23.916803 -115.646591 105.519653
